<svg id="visual" viewBox="0 0 900 600" width="900" height="600" xmlns="http://www.w3.org/2000/svg" xmlns:xlink="http://www.w3.org/1999/xlink" version="1.1"><rect x="0" y="0" width="900" height="600" fill="#29296e"></rect><path d="M0 384L21.5 389.8C43 395.7 86 407.3 128.8 423.5C171.7 439.7 214.3 460.3 257.2 453.8C300 447.3 343 413.7 385.8 417.3C428.7 421 471.3 462 514.2 478.7C557 495.3 600 487.7 642.8 482.7C685.7 477.7 728.3 475.3 771.2 477.3C814 479.3 857 485.7 878.5 488.8L900 492L900 601L878.5 601C857 601 814 601 771.2 601C728.3 601 685.7 601 642.8 601C600 601 557 601 514.2 601C471.3 601 428.7 601 385.8 601C343 601 300 601 257.2 601C214.3 601 171.7 601 128.8 601C86 601 43 601 21.5 601L0 601Z" fill="#F6633C" stroke-linecap="round" stroke-linejoin="miter"></path></svg>